<svg width="100%" height="100%" viewBox="0 0 36 42" xmlns="http://www.w3.org/2000/svg" style="fill-rule:evenodd;clip-rule:evenodd;stroke-linejoin:round;stroke-miterlimit:2;"><path d="M18,0l18,10.5l0,21l-18,10.5l-18,-10.5l0,-21l18,-10.5Z" style="fill:#fff;"/><path d="M18,0l18,10.5l0,21l-18,10.5l-18,-10.5l0,-21l18,-10.5Zm-16,11.7l0,18.6l16,9.3l16,-9.3l0,-18.6l-16,-9.3l-16,9.3Z" style="fill-rule:nonzero;"/><path d="M26,21l-5,2.6l0,0.4l5,0l0,4l-16,0l0,-4l5,0l0,-0.4l-5,-2.6l0,-5l8,4.3l8,-4.3" style="fill-rule:nonzero;"/></svg>